<svg width="536" height="946" viewBox="0 0 536 946" fill="none" xmlns="http://www.w3.org/2000/svg">
<g clip-path="url(#clip0_67_81)">
<path d="M480.5 763.946C483.363 778.602 481.367 787.688 473.5 804.946V809.946C477.636 803.193 479.831 798.752 483 786.946C484.426 781.248 484.486 775.617 483 760.446H481L480.5 763.946Z" fill="#879C7D" stroke="#879C7D"/>
<path d="M460.5 702.447C461.818 706.043 462.585 707.036 464 706.947M464 706.947L462 709.947M464 706.947L465 703.447C465.951 701.066 466.364 702.467 467 707.447M467 707.447L468 704.447C468.495 703 468.55 703.986 468.5 706.947H470.5C471.829 705.547 472.589 705.305 474 705.947C473.894 707.072 473.859 709.196 474 708.947H476.5C476.5 708.947 476.5 708.947 477.5 708.447C478.5 707.946 476 710.947 476 710.947M467 707.447C469.083 711.883 471.845 710.952 476 710.947M476 710.947L480.5 715.447" stroke="#A52B36"/>
<path d="M476.5 718.946C475.602 728.103 476.547 733.765 481 742.946L478.5 718.946H476.5Z" fill="#879C7D" stroke="#879C7D"/>
<path d="M488 705.447H491C494.885 705.808 494.529 706.546 493.5 707.947L488 713.447H483.5C482.326 713.512 481.676 713.932 480.5 715.447L479 717.447C478.554 717.962 478.532 718.315 478.5 718.946H476M488 705.447C490.426 702.305 491.248 700.382 491 696.447H484.5L482.5 697.447M488 705.447C487.51 705.324 486.799 705.429 486 705.675M480 709.447C480.244 708.536 483.539 706.435 486 705.675M486 705.675C486 705.492 486 702.113 486 700.447C485.926 698.761 485.994 697.772 482.5 697.447M482.5 697.447H479C479.112 693.386 478.36 693.178 476 695.447C474.558 696.355 474.5 694.446 473 694.446C471.5 694.446 469.5 698.446 469.5 698.446H467C465.767 697.057 465.066 696.177 464 696.447" stroke="#A52B36"/>
<path d="M468.5 767.446C457.39 767.761 450.737 767.851 450 756.446C450.072 754.188 453.599 753.295 457.5 751.446C458.823 750.677 458.325 750.416 455.5 750.446C454.325 750.569 454.977 749.266 458 744.946C459.902 744.591 461.22 742.761 463.5 739.946C465.414 738.433 465.429 741.912 465.5 747.946C466.047 749.698 466.369 750.051 466.883 749.971M467 749.946C466.96 749.957 466.921 749.965 466.883 749.971M466.883 749.971C466.962 748.576 467.867 744.288 469 743.946L474.5 739.946C475.618 739.264 476.802 740.496 479 742.946H481.5L482.5 743.946C486.692 744.708 488.364 745.681 490 748.446C490.347 751.181 490.367 752.82 483.5 759.946H479.5" stroke="#A52B36"/>
<path d="M471.5 770.446C471.333 786.946 471 820.046 471 820.446H473L473.5 770.446H471.5Z" fill="#879C7D" stroke="#879C7D"/>
<path d="M467 845.946C461.721 859.074 460.676 893.233 465 896.946C463.551 896.766 462.374 891.806 460.5 885.946C460.15 885.158 459.92 882.219 459.5 875.946C460.532 857.699 461.522 849.293 464.999 841.946L467 845.946Z" fill="#879C7D" stroke="#879C7D"/>
<path d="M485 864.446C482.125 870.974 479.345 875.327 472 884.446L471.5 886.946L483.5 880.446C485.428 879.469 486.07 878.922 483.5 877.946V875.946L487.5 872.946C488.864 871.546 488.5 871.111 487.5 870.446V855.946C487.464 854.609 486.796 854.003 485.5 852.946C484.516 856.894 483.819 859.097 481.5 862.946C480.786 864.026 480.426 864.811 479.5 864.946C478.165 865.149 477.799 864.971 478 863.946C478.096 863.158 478.046 862.846 477 863.446C474.514 865.531 473.275 866.843 473 870.946V878.946C477.313 874.123 480.021 870.765 485 864.446Z" fill="#879C7D" stroke="#879C7D"/>
<path d="M471 954.446L467.5 950.946L469.5 848.946C464.012 839.84 461.537 834.835 458.5 826.446C457.39 823.981 457.3 822.919 459.5 822.446C456.646 818.048 456 815.811 459.5 812.946C457.834 809.781 456.977 808.026 459.5 805.946L460.5 793.946C462.915 799.198 464.242 801.632 466.5 803.946C466.788 807.755 467.156 809.441 468.5 810.946V820.946H472.5V841.446C467.734 830.273 465.894 823.58 463 811.446C464.673 827.039 465.387 836.176 471.5 843.946L471 954.446Z" fill="#879C7D"/>
<path d="M471 954.446L467.5 950.946L469.5 848.946M471 954.446V848.946H469.5M471 954.446L471.5 843.946C465.387 836.176 464.673 827.039 463 811.446C465.894 823.58 467.734 830.273 472.5 841.446V820.946H468.5V810.946C467.156 809.441 466.788 807.755 466.5 803.946C464.242 801.632 462.915 799.198 460.5 793.946L459.5 805.946C456.977 808.026 457.834 809.781 459.5 812.946C456 815.811 456.646 818.048 459.5 822.446C457.3 822.919 457.39 823.981 458.5 826.446C461.537 834.835 464.012 839.84 469.5 848.946" stroke="#879C7D"/>
<path d="M463.501 764.947C467.587 766.691 468.949 767.667 471 769.446L474 769.447C479.468 762.854 480.216 758.543 480 750.447C479.852 746.216 479.411 745.095 477.5 746.947L475 750.447H472C471.5 750.447 472.208 749.604 471.5 749.447C469.788 749.172 469.072 749.174 469 749.947C469.129 752.404 468.907 753.412 467.5 753.947H464.5C464.387 756.082 464.242 757.109 463.5 757.947H459.501C459.469 761.2 460.391 762.706 463.501 764.947Z" stroke="#A52B36"/>
<path d="M458.5 750.946C459.923 749.883 460.74 749.934 462 751.446L464.5 753.946" stroke="#A52B36"/>
<path d="M476.499 718.946C476.55 718.36 476.14 717.823 474.499 716.446C468.423 719.982 464.695 717.526 457.999 712.446C460.138 712.251 460.972 711.771 461.999 710.446C462.885 709.621 461.859 709.187 457.999 708.446C454.949 706.993 455.064 705.642 457.999 702.446H460.499C460.554 698.565 461.256 697.176 463.999 696.446" stroke="#A52B36"/>
<path d="M478 706.446C475.017 700.747 473.337 697.207 470.5 696.946M475.5 701.446C475.898 699.082 476.579 698.136 479 697.446" stroke="#A52B36"/>
<path d="M376 925C372.931 927.081 370.815 929.347 367 933.5V936.5C371.314 934.097 373.431 932.844 376 931V925Z" fill="#879C7D"/>
<path d="M385.5 934C382.262 932.022 380.53 931.078 378 930.5V923C381.33 924.403 385.403 928.175 392 934H385.5Z" fill="#879C7D"/>
<path d="M376 925C372.931 927.081 370.815 929.347 367 933.5V936.5C371.314 934.097 373.431 932.844 376 931V925Z" stroke="#879C7D"/>
<path d="M385.5 934C382.262 932.022 380.53 931.078 378 930.5V923C381.33 924.403 385.403 928.175 392 934H385.5Z" stroke="#879C7D"/>
<path d="M360.39 906.543C356.694 909.672 354.116 911.26 347.89 913.543C351.389 917.535 353.886 917.221 358.89 914.043C361.841 912.402 363.087 912.584 364.89 914.043V909.543C362.471 908.617 361.842 908.188 361.89 907.543C361.634 906.409 361.359 906.077 360.39 906.543Z" fill="#879C7D" stroke="#879C7D"/>
<path d="M369.89 894.543C365.119 898.385 362.455 900.357 357.89 900.543C360.778 903.442 362.569 904.543 366.89 903.043C371.536 900.423 373.584 899.559 374.89 900.543V897.043C372.807 894.607 371.651 893.398 369.89 894.543Z" fill="#879C7D" stroke="#879C7D"/>
<path d="M365.39 888.543C354.956 882.705 350.597 877.735 348.39 862.543C353.284 866.199 358.017 874.321 365.39 885.543V888.543Z" fill="#879C7D" stroke="#879C7D"/>
<path d="M377.39 864.543C363.283 862.775 354.821 846.72 355.89 823.543C358.03 828.9 359.236 834.536 361.39 846.043C361.853 838.253 361.377 833.411 359.39 824.043C363.167 829.231 364.287 833.338 366.39 840.543C369.481 849.736 371.201 854.915 375.39 862.043C376.985 863.247 377.382 863.188 377.39 862.043C368.114 842.913 367.342 839.121 364.89 828.543C374.331 841.781 377.661 848.098 380.39 857.543L379.89 865.543L377.39 864.543Z" fill="#879C7D" stroke="#879C7D"/>
<path d="M376.39 869.543V955.043" stroke="#879C7D"/>
<path d="M377.391 845.544C377.333 839.909 377.542 836.716 378.391 831.044C372.571 827.374 372.027 819.331 372.391 802.043C372.518 793.1 373.676 788.71 376.891 781.544C377.046 776.057 377.599 774.716 379.391 775.544C381.191 778.04 380.636 779.306 379.391 781.544V830.044H380.891L381.391 783.544C385.016 788.056 386.501 791.83 387.391 802.544V823.544C382.525 829.461 380.714 835.128 378.391 847.544L377.391 845.544Z" fill="#879C7D" stroke="#879C7D"/>
<path d="M360.39 761.543C359.634 753.822 355.589 751.506 345.39 749.043C341.547 745.126 342.078 743.439 348.89 741.543C349.63 738.536 350.955 738.228 353.89 738.543M370.39 761.543C373.538 752.626 377.022 749.993 385.89 749.043C388.66 745.061 388.205 743.36 382.89 741.543C382.174 738.772 381.17 737.808 376.89 738.543M353.89 738.543C355.268 734.258 356.724 732.768 360.39 731.543M353.89 738.543C357.406 741.815 358.953 743.927 360.39 748.543M360.39 731.543C365.126 723.822 367.245 724.491 370.39 731.543M360.39 731.543C362.785 731.395 364.028 731.686 365.89 733.543C367.197 731.925 368.223 731.564 370.39 731.543M370.39 731.543C374.183 732.72 375.661 734.198 376.89 738.543M376.89 738.543C373.241 741.971 371.828 744.161 370.39 748.543" stroke="#FBD499"/>
<path d="M365.39 988.043V771.043M365.39 744.543V768.043M366.39 747.043V768.043M364.39 752.043V768.043" stroke="#879C7D"/>
<rect x="359.89" y="761.543" width="11" height="7" fill="#879C7D"/>
<path d="M383.89 878.543C384.61 873.232 383.306 869.553 379.89 862.543L379.39 864.543C386.89 870.543 376.39 898.543 376.39 900.543L383.89 878.543Z" fill="#879C7D" stroke="#879C7D"/>
</g>
<defs>
<clipPath id="clip0_67_81">
<rect width="536" height="946" fill="white"/>
</clipPath>
</defs>
</svg>
