<svg width="536" height="946" viewBox="0 0 536 946" fill="none" xmlns="http://www.w3.org/2000/svg">
<g clip-path="url(#clip0_73_2689)">
<path d="M47.6855 758.946C44.8219 773.602 46.8181 782.688 54.6855 799.946V804.946C50.5492 798.193 48.3543 793.752 45.1855 781.946C43.7593 776.248 43.6996 770.617 45.1855 755.446H47.1855L47.6855 758.946Z" fill="#879C7D" stroke="#879C7D"/>
<path d="M67.6855 697.447C66.3669 701.043 65.6008 702.036 64.1855 701.947M64.1855 701.947L66.1855 704.947M64.1855 701.947L63.1855 698.447C62.2345 696.066 61.8212 697.467 61.1855 702.447M61.1855 702.447L60.1855 699.447C59.6906 698 59.6354 698.986 59.6855 701.947H57.6855C56.3561 700.547 55.5965 700.305 54.1855 700.947C54.291 702.072 54.326 704.196 54.1855 703.947H51.6855C51.6855 703.947 51.6855 703.947 50.6855 703.447C49.6855 702.946 52.1855 705.947 52.1855 705.947M61.1855 702.447C59.102 706.883 56.3404 705.952 52.1855 705.947M52.1855 705.947L47.6855 710.447" stroke="#A52B36"/>
<path d="M51.6859 713.946C52.5836 723.103 51.6391 728.765 47.186 737.946L49.686 713.946H51.6859Z" fill="#879C7D" stroke="#879C7D"/>
<path d="M40.1855 700.447H37.1855C33.3004 700.808 33.6561 701.546 34.6855 702.947L40.1855 708.447H44.6855C45.8591 708.512 46.5097 708.932 47.6855 710.447L49.1855 712.447C49.6311 712.962 49.6534 713.315 49.6855 713.946H52.1855M40.1855 700.447C37.7591 697.305 36.9378 695.382 37.1855 691.447H43.6855L45.6855 692.447M40.1855 700.447C40.6753 700.324 41.3864 700.429 42.1855 700.675M48.1855 704.447C47.9416 703.536 44.646 701.435 42.1855 700.675M42.1855 700.675C42.1855 700.492 42.1855 697.113 42.1855 695.447C42.2595 693.761 42.1918 692.772 45.6855 692.447M45.6855 692.447H49.1855C49.0729 688.386 49.8257 688.178 52.1855 690.447C53.6275 691.355 53.6855 689.446 55.1855 689.446C56.6855 689.446 58.6855 693.446 58.6855 693.446H61.1855C62.4183 692.057 63.1197 691.177 64.1855 691.447" stroke="#A52B36"/>
<path d="M59.6855 762.446C70.7958 762.761 77.4481 762.851 78.1855 751.446C78.1132 749.188 74.5862 748.295 70.6855 746.446C69.3629 745.677 69.8607 745.416 72.6857 745.446C73.861 745.569 73.2085 744.266 70.1858 739.946C68.2833 739.591 66.9658 737.761 64.6858 734.946C62.772 733.433 62.7568 736.912 62.6858 742.946C62.1383 744.698 61.8161 745.051 61.3022 744.971M61.1858 744.946C61.2257 744.957 61.2645 744.965 61.3022 744.971M61.3022 744.971C61.2231 743.576 60.3188 739.288 59.1858 738.946L53.6858 734.946C52.5676 734.264 51.3839 735.496 49.1858 737.946H46.6858L45.6858 738.946C41.4939 739.708 39.8216 740.681 38.1858 743.446C37.839 746.181 37.8187 747.82 44.6858 754.946H48.6858" stroke="#A52B36"/>
<path d="M56.6855 765.446C56.8522 781.946 57.1855 815.046 57.1855 815.446H55.1855L54.6855 765.446H56.6855Z" fill="#879C7D" stroke="#879C7D"/>
<path d="M61.1859 840.946C66.465 854.074 67.5092 888.233 63.1859 891.946C64.6347 891.766 65.8116 886.806 67.686 880.946C68.0356 880.158 68.2651 877.219 68.686 870.946C67.6531 852.699 66.6632 844.293 63.1863 836.946L61.1859 840.946Z" fill="#879C7D" stroke="#879C7D"/>
<path d="M43.1855 859.446C46.0599 865.974 48.8408 870.327 56.1855 879.446L56.6855 881.946L44.6855 875.446C42.7569 874.469 42.1151 873.922 44.6855 872.946V870.946L40.6855 867.946C39.3209 866.546 39.6857 866.111 40.6855 865.446V850.946C40.7213 849.609 41.3891 849.003 42.6855 847.946C43.6695 851.894 44.3662 854.097 46.6855 857.946C47.3998 859.026 47.7598 859.811 48.6855 859.946C50.0198 860.149 50.3862 859.971 50.1855 858.946C50.0894 858.158 50.1398 857.846 51.1855 858.446C53.6717 860.531 54.9099 861.843 55.1855 865.946V873.946C50.8727 869.123 48.1639 865.765 43.1855 859.446Z" fill="#879C7D" stroke="#879C7D"/>
<path d="M57.185 949.446L60.685 945.946L58.685 843.946C64.1737 834.84 66.6484 829.835 69.685 821.446C70.7956 818.981 70.8856 817.919 68.685 817.446C71.5395 813.048 72.1854 810.811 68.6852 807.946C70.3514 804.781 71.2083 803.026 68.6855 800.946L67.6855 788.946C65.2703 794.198 63.9428 796.632 61.6855 798.946C61.3973 802.755 61.0297 804.441 59.6855 805.946V815.946H55.6855V836.446C60.4508 825.273 62.2913 818.58 65.1855 806.446C63.5122 822.039 62.7984 831.176 56.6855 838.946L57.185 949.446Z" fill="#879C7D"/>
<path d="M57.185 949.446L60.685 945.946L58.685 843.946M57.185 949.446V843.946H58.685M57.185 949.446L56.6855 838.946C62.7984 831.176 63.5122 822.039 65.1855 806.446C62.2913 818.58 60.4508 825.273 55.6855 836.446V815.946H59.6855V805.946C61.0297 804.441 61.3973 802.755 61.6855 798.946C63.9428 796.632 65.2703 794.198 67.6855 788.946L68.6855 800.946C71.2083 803.026 70.3514 804.781 68.6852 807.946C72.1854 810.811 71.5395 813.048 68.685 817.446C70.8856 817.919 70.7956 818.981 69.685 821.446C66.6484 829.835 64.1737 834.84 58.685 843.946" stroke="#879C7D"/>
<path d="M64.6848 759.947C60.5986 761.691 59.2361 762.667 57.1855 764.446L54.1855 764.447C48.7169 757.854 47.9689 753.543 48.1855 745.447C48.3329 741.216 48.7744 740.095 50.6855 741.947L53.1855 745.447H56.1855C56.6855 745.447 55.9773 744.604 56.6855 744.447C58.3974 744.172 59.1133 744.174 59.1855 744.947C59.0563 747.404 59.2783 748.412 60.6855 748.947H63.6855C63.7983 751.082 63.9432 752.109 64.6855 752.947H68.6848C68.7167 756.2 67.7943 757.706 64.6848 759.947Z" stroke="#A52B36"/>
<path d="M69.6855 745.946C68.2618 744.883 67.445 744.934 66.1855 746.446L63.6855 748.946" stroke="#A52B36"/>
<path d="M51.6865 713.946C51.6357 713.36 52.0452 712.823 53.6865 711.446C59.7628 714.982 63.4902 712.526 70.1865 707.446C68.0478 707.251 67.2132 706.771 66.1865 705.446C65.3008 704.621 66.3265 704.187 70.1865 703.446C73.2367 701.993 73.1215 700.642 70.1865 697.446H67.6865C67.6312 693.565 66.9293 692.176 64.1865 691.446" stroke="#A52B36"/>
<path d="M50.1855 701.446C53.1679 695.747 54.8484 692.207 57.6855 691.946M52.6855 696.446C52.2878 694.082 51.6062 693.136 49.1855 692.446" stroke="#A52B36"/>
<path d="M152.186 920C155.255 922.081 157.37 924.347 161.186 928.5V931.5C156.872 929.097 154.754 927.844 152.186 926V920Z" fill="#879C7D"/>
<path d="M142.686 929C145.923 927.022 147.655 926.078 150.186 925.5V918C146.856 919.403 142.782 923.175 136.186 929H142.686Z" fill="#879C7D"/>
<path d="M152.186 920C155.255 922.081 157.37 924.347 161.186 928.5V931.5C156.872 929.097 154.754 927.844 152.186 926V920Z" stroke="#879C7D"/>
<path d="M142.686 929C145.923 927.022 147.655 926.078 150.186 925.5V918C146.856 919.403 142.782 923.175 136.186 929H142.686Z" stroke="#879C7D"/>
<path d="M167.795 901.543C171.492 904.672 174.07 906.26 180.295 908.543C176.797 912.535 174.299 912.221 169.295 909.043C166.345 907.402 165.099 907.584 163.295 909.043V904.543C165.715 903.617 166.344 903.188 166.295 902.543C166.551 901.409 166.827 901.077 167.795 901.543Z" fill="#879C7D" stroke="#879C7D"/>
<path d="M158.295 889.543C163.067 893.385 165.73 895.357 170.295 895.543C167.407 898.442 165.617 899.543 161.295 898.043C156.649 895.423 154.601 894.559 153.295 895.543V892.043C155.379 889.607 156.534 888.398 158.295 889.543Z" fill="#879C7D" stroke="#879C7D"/>
<path d="M162.795 883.543C173.229 877.705 177.589 872.735 179.795 857.543C174.902 861.199 170.168 869.321 162.795 880.543V883.543Z" fill="#879C7D" stroke="#879C7D"/>
<path d="M150.795 859.543C164.902 857.775 173.364 841.72 172.295 818.543C170.155 823.9 168.949 829.536 166.795 841.043C166.333 833.253 166.809 828.411 168.795 819.043C165.018 824.231 163.898 828.338 161.795 835.543C158.704 844.736 156.984 849.915 152.795 857.043C151.2 858.247 150.803 858.188 150.795 857.043C160.072 837.913 160.843 834.121 163.295 823.543C153.855 836.781 150.524 843.098 147.795 852.543L148.295 860.543L150.795 859.543Z" fill="#879C7D" stroke="#879C7D"/>
<path d="M151.795 864.543V950.043" stroke="#879C7D"/>
<path d="M150.795 840.544C150.853 834.909 150.644 831.716 149.795 826.044C155.615 822.374 156.159 814.331 155.795 797.043C155.668 788.1 154.51 783.71 151.295 776.544C151.14 771.057 150.586 769.716 148.795 770.544C146.994 773.04 147.549 774.306 148.795 776.544V825.044H147.295L146.795 778.544C143.169 783.056 141.685 786.83 140.795 797.544V818.544C145.661 824.461 147.471 830.128 149.795 842.544L150.795 840.544Z" fill="#879C7D" stroke="#879C7D"/>
<path d="M167.795 756.543C168.552 748.822 172.597 746.506 182.795 744.043C186.638 740.126 186.107 738.439 179.295 736.543C178.556 733.536 177.231 733.228 174.295 733.543M157.795 756.543C154.647 747.626 151.163 744.993 142.295 744.043C139.526 740.061 139.981 738.36 145.295 736.543C146.011 733.772 147.016 732.808 151.295 733.543M174.295 733.543C172.917 729.258 171.462 727.768 167.795 726.543M174.295 733.543C170.779 736.815 169.233 738.927 167.795 743.543M167.795 726.543C163.059 718.822 160.94 719.491 157.795 726.543M167.795 726.543C165.4 726.395 164.158 726.686 162.295 728.543C160.988 726.925 159.963 726.564 157.795 726.543M157.795 726.543C154.003 727.72 152.525 729.198 151.295 733.543M151.295 733.543C154.945 736.971 156.358 739.161 157.795 743.543" stroke="#FBD499"/>
<path d="M162.795 983.043V766.043M162.795 739.543V763.043M161.795 742.043V763.043M163.795 747.043V763.043" stroke="#879C7D"/>
<rect width="11" height="7" transform="matrix(-1 0 0 1 168.295 756.543)" fill="#879C7D"/>
<path d="M144.295 873.543C143.576 868.232 144.88 864.553 148.295 857.543L148.795 859.543C141.295 865.543 151.795 893.543 151.795 895.543L144.295 873.543Z" fill="#879C7D" stroke="#879C7D"/>
</g>
<defs>
<clipPath id="clip0_73_2689">
<rect width="536" height="946" transform="matrix(-1 0 0 1 536 0)" fill="white"/>
</clipPath>
</defs>
</svg>
