<svg width="300" height="300" viewBox="0 0 300 300" fill="none" xmlns="http://www.w3.org/2000/svg">
<rect width="300" height="300" fill="white"/>
<g clip-path="url(#clip0_3_2)">
<path d="M255.239 211C256.942 208.053 258 204.732 258 201.751V98.2488C258 95.267 256.943 91.9473 255.24 89.0004L149.5 150L255.239 211Z" fill="#CBC385"/>
<path d="M158.896 269.763L248.604 218.012C251.188 216.522 253.537 213.947 255.239 211L149.5 150L43.7607 211C45.4634 213.947 47.8128 216.522 50.3963 218.012L140.104 269.763C145.271 272.745 153.729 272.745 158.896 269.763Z" fill="#879C7D"/>
<path d="M255.24 88.9996C253.537 86.0519 251.187 83.4777 248.604 81.9868L158.896 30.2363C153.729 27.2546 145.271 27.2546 140.104 30.2363L50.3962 81.9868C45.228 84.9678 41 92.286 41 98.2487V201.751C41 204.732 42.0573 208.053 43.7607 211L149.5 150L255.24 88.9996Z" fill="#CBC385"/>
<path d="M149.5 222.275C109.615 222.275 77.1666 189.853 77.1666 150C77.1666 110.147 109.615 77.7247 149.5 77.7247C175.236 77.7247 199.239 91.5633 212.14 113.84L180.836 131.94C174.379 120.789 162.371 113.862 149.5 113.862C129.557 113.862 113.333 130.073 113.333 150C113.333 169.926 129.557 186.138 149.5 186.138C162.372 186.138 174.38 179.211 180.838 168.058L212.142 186.157C199.241 208.436 175.238 222.275 149.5 222.275Z" fill="white"/>
<path d="M221.833 145.984H213.796V137.954H205.76V145.984H197.722V154.015H205.76V162.046H213.796V154.015H221.833V145.984Z" fill="white"/>
<path d="M251.972 145.984H243.935V137.954H235.899V145.984H227.861V154.015H235.899V162.046H243.935V154.015H251.972V145.984Z" fill="white"/>
</g>
<defs>
<clipPath id="clip0_3_2">
<rect width="217" height="244" fill="white" transform="translate(41 28)"/>
</clipPath>
</defs>
</svg>
