<svg width="300" height="300" viewBox="0 0 300 300" fill="none" xmlns="http://www.w3.org/2000/svg">
<rect width="300" height="300" fill="white"/>
<path d="M102.033 179.971C106.698 179.971 110.279 179.119 111.869 178.324L110.561 171.556C108.852 172.239 105.953 172.808 103.336 172.808C95.6036 172.808 91.0522 167.975 91.0522 160.299C91.0522 151.771 96.3989 147.614 103.28 147.614C106.348 147.614 108.796 148.297 110.561 149.036L112.326 142.155C110.792 141.36 107.38 140.451 102.885 140.451C91.2834 140.451 81.9548 147.733 81.9548 160.812C81.9548 171.731 88.7792 179.977 102.033 179.977V179.971Z" fill="#879C7D"/>
<path d="M123.99 180.027C127.058 180.027 129.105 177.811 129.105 174.85C129.049 171.782 127.058 169.616 124.046 169.616C121.034 169.616 118.931 171.832 118.931 174.85C118.931 177.867 121.034 180.027 123.99 180.027Z" fill="#879C7D"/>
<path d="M123.99 161.658C127.058 161.658 129.105 159.441 129.105 156.48C129.049 153.356 127.058 151.246 124.046 151.246C121.034 151.246 118.931 153.407 118.931 156.48C118.931 159.554 121.034 161.658 123.99 161.658Z" fill="#879C7D"/>
<path d="M152.252 182.622L140.289 139.493H132.579L144.593 182.622H152.252Z" fill="#879C7D"/>
<path d="M211.376 80.8198H69.9134C62.2543 80.8198 56.0447 87.0294 56.0447 94.6885V205.351C56.0447 213.01 62.2543 219.22 69.9134 219.22H211.376C219.035 219.22 225.245 213.01 225.245 205.351V94.6885C225.245 87.0294 219.035 80.8198 211.376 80.8198ZM96.4666 92.4889C99.1681 92.4889 101.356 94.6772 101.356 97.3788C101.356 100.08 99.1681 102.269 96.4666 102.269C93.765 102.269 91.5767 100.08 91.5767 97.3788C91.5767 94.6772 93.765 92.4889 96.4666 92.4889ZM78.6949 92.4889C81.3965 92.4889 83.5848 94.6772 83.5848 97.3788C83.5848 100.08 81.3965 102.269 78.6949 102.269C75.9934 102.269 73.805 100.08 73.805 97.3788C73.805 94.6772 75.9934 92.4889 78.6949 92.4889ZM215.769 205.345C215.769 207.771 213.807 209.733 211.382 209.733H69.9134C67.4882 209.733 65.5255 207.771 65.5255 205.345V113.047H215.769V205.345Z" fill="#879C7D"/>
</svg>
