<svg width="300" height="300" viewBox="0 0 300 300" fill="none" xmlns="http://www.w3.org/2000/svg">
<rect width="300" height="300" fill="white"/>
<path d="M77.5 193.5C77.5 196.818 79.143 200.22 82.6266 203.57C86.117 206.926 91.2995 210.063 97.9088 212.751C111.115 218.121 129.53 221.5 150 221.5C170.47 221.5 188.885 218.121 202.091 212.751C208.7 210.063 213.883 206.926 217.373 203.57C220.857 200.22 222.5 196.818 222.5 193.5C222.5 190.182 220.857 186.78 217.373 183.43C213.883 180.074 208.7 176.937 202.091 174.249C188.885 168.879 170.47 165.5 150 165.5C129.53 165.5 111.115 168.879 97.9088 174.249C91.2995 176.937 86.117 180.074 82.6266 183.43C79.143 186.78 77.5 190.182 77.5 193.5Z" fill="#879C7D" stroke="black" stroke-width="5"/>
<rect width="143" height="31" transform="matrix(-1 0 0 1 221 163)" fill="#879C7D"/>
<path d="M77.5 154.5C77.5 157.818 79.143 161.22 82.6266 164.57C86.117 167.926 91.2995 171.063 97.9088 173.751C111.115 179.121 129.53 182.5 150 182.5C170.47 182.5 188.885 179.121 202.091 173.751C208.7 171.063 213.883 167.926 217.373 164.57C220.857 161.22 222.5 157.818 222.5 154.5C222.5 151.182 220.857 147.78 217.373 144.43C213.883 141.074 208.7 137.937 202.091 135.249C188.885 129.879 170.47 126.5 150 126.5C129.53 126.5 111.115 129.879 97.9088 135.249C91.2995 137.937 86.117 141.074 82.6266 144.43C79.143 147.78 77.5 151.182 77.5 154.5Z" fill="#879C7D" stroke="black" stroke-width="5"/>
<path d="M222.5 155.5V194.5" stroke="black" stroke-width="5"/>
<path d="M78 157V196" stroke="black" stroke-width="5"/>
<path d="M164.745 204.753C151.251 207.242 142.726 207.236 126 205.004" stroke="black" stroke-width="5" stroke-linecap="round"/>
<circle cx="3" cy="3" r="3" transform="matrix(-1 0 0 1 208 196)" fill="black"/>
<circle cx="3" cy="3" r="3" transform="matrix(-1 0 0 1 189 199)" fill="black"/>
<path d="M222.5 158.5C222.5 161.818 220.857 165.22 217.373 168.57C213.883 171.926 208.7 175.063 202.091 177.751C188.885 183.121 170.47 186.5 150 186.5C129.53 186.5 111.115 183.121 97.9088 177.751C91.2995 175.063 86.117 171.926 82.6266 168.57C79.143 165.22 77.5 161.818 77.5 158.5C77.5 155.182 79.143 151.78 82.6266 148.43C86.117 145.074 91.2995 141.937 97.9088 139.249C111.115 133.879 129.53 130.5 150 130.5C170.47 130.5 188.885 133.879 202.091 139.249C208.7 141.937 213.883 145.074 217.373 148.43C220.857 151.78 222.5 155.182 222.5 158.5Z" fill="#879C7D" stroke="black" stroke-width="5"/>
<rect x="79" y="128" width="143" height="31" fill="#879C7D"/>
<path d="M222.5 119.5C222.5 122.818 220.857 126.22 217.373 129.57C213.883 132.926 208.7 136.063 202.091 138.751C188.885 144.121 170.47 147.5 150 147.5C129.53 147.5 111.115 144.121 97.9088 138.751C91.2995 136.063 86.117 132.926 82.6266 129.57C79.143 126.22 77.5 122.818 77.5 119.5C77.5 116.182 79.143 112.78 82.6266 109.43C86.117 106.074 91.2995 102.937 97.9088 100.249C111.115 94.8787 129.53 91.5 150 91.5C170.47 91.5 188.885 94.8787 202.091 100.249C208.7 102.937 213.883 106.074 217.373 109.43C220.857 112.78 222.5 116.182 222.5 119.5Z" fill="#879C7D" stroke="black" stroke-width="5"/>
<path d="M77.5 120.5V159.5" stroke="black" stroke-width="5"/>
<path d="M222 122V161" stroke="black" stroke-width="5"/>
<path d="M126 165.997C139.438 168.773 147.962 168.948 164.731 167.072" stroke="black" stroke-width="5" stroke-linecap="round"/>
<circle cx="95" cy="159" r="3" fill="black"/>
<circle cx="192" cy="161" r="3" fill="black"/>
<path d="M222.5 119.5C222.5 122.818 220.857 126.22 217.373 129.57C213.883 132.926 208.7 136.063 202.091 138.751C188.885 144.121 170.47 147.5 150 147.5C129.53 147.5 111.115 144.121 97.9088 138.751C91.2995 136.063 86.117 132.926 82.6266 129.57C79.143 126.22 77.5 122.818 77.5 119.5C77.5 116.182 79.143 112.78 82.6266 109.43C86.117 106.074 91.2995 102.937 97.9088 100.249C111.115 94.8787 129.53 91.5 150 91.5C170.47 91.5 188.885 94.8787 202.091 100.249C208.7 102.937 213.883 106.074 217.373 109.43C220.857 112.78 222.5 116.182 222.5 119.5Z" fill="#879C7D" stroke="black" stroke-width="5"/>
<rect x="79" y="89" width="143" height="31" fill="#879C7D"/>
<path d="M222.5 80.5C222.5 83.8178 220.857 87.2205 217.373 90.5698C213.883 93.9258 208.7 97.0632 202.091 99.7509C188.885 105.121 170.47 108.5 150 108.5C129.53 108.5 111.115 105.121 97.9088 99.7509C91.2995 97.0632 86.117 93.9258 82.6266 90.5698C79.143 87.2205 77.5 83.8178 77.5 80.5C77.5 77.1822 79.143 73.7795 82.6266 70.4302C86.117 67.0742 91.2995 63.9368 97.9088 61.2491C111.115 55.8787 129.53 52.5 150 52.5C170.47 52.5 188.885 55.8787 202.091 61.2491C208.7 63.9368 213.883 67.0742 217.373 70.4302C220.857 73.7795 222.5 77.1822 222.5 80.5Z" fill="#879C7D" stroke="black" stroke-width="5"/>
<path d="M77.5 81.5V120.5" stroke="black" stroke-width="5"/>
<path d="M222 83V122" stroke="black" stroke-width="5"/>
<path d="M89 118.5C101.188 124.804 109.348 127.275 126 130" stroke="black" stroke-width="5" stroke-linecap="round"/>
<circle cx="186" cy="126" r="3" fill="black"/>
<circle cx="205" cy="120" r="3" fill="black"/>
</svg>
