<svg width="300" height="300" viewBox="0 0 300 300" fill="none" xmlns="http://www.w3.org/2000/svg">
<rect width="300" height="300" fill="white"/>
<rect x="57" y="125" width="24" height="24" fill="#879C7D"/>
<rect x="88" y="125" width="24" height="24" fill="#879C7D"/>
<rect x="119" y="125" width="24" height="24" fill="#879C7D"/>
<rect x="88" y="95" width="24" height="24" fill="#879C7D"/>
<rect x="119" y="95" width="24" height="24" fill="#879C7D"/>
<rect x="150" y="95" width="24" height="24" fill="#879C7D"/>
<rect x="150" y="65" width="24" height="24" fill="#879C7D"/>
<rect x="150" y="125" width="24" height="24" fill="#879C7D"/>
<rect x="181" y="125" width="24" height="24" fill="#879C7D"/>
<path d="M79 219C61.6501 201.736 57.2842 187.479 56 156.5L206.5 156C214.059 155.073 217.981 153.704 224.5 150C218.553 140.115 216.798 134.135 219 122C221.496 112.156 223.625 108.931 228 105C240.936 114.041 245.476 120.234 247 134C268.064 131.509 275.436 132.939 281.5 140C274.38 154.596 269.048 160.556 254 162H242C234.217 182.307 228.801 193.362 212.5 211C188.833 232.246 174.974 239.197 149 241H128C104.601 237.753 93.7392 233.097 79 219Z" fill="#879C7D"/>
</svg>
