<svg width="300" height="300" viewBox="0 0 300 300" fill="none" xmlns="http://www.w3.org/2000/svg">
<rect width="300" height="300" fill="white"/>
<path fill-rule="evenodd" clip-rule="evenodd" d="M151.384 98.2515L151.384 108.751L74.8843 108.751C56.4924 109.742 49.2385 119.994 45.3843 150.751C42.9536 182.983 52.2064 198.444 68.8843 203.751C75.0616 204.666 80.0129 204.54 86.1681 204.382C88.2396 204.329 90.4474 204.273 92.8843 204.251L92.8843 171.751C92.7091 162.896 102.183 145.705 121.884 145.751L167.384 145.751C180.45 145.546 188.239 136.787 188.384 126.751L188.384 74.7515C187.264 57.3575 177.505 52.814 150.384 50.2515C138.255 49.4747 131.061 50.3693 117.384 54.7515C107.573 58.6464 103.982 63.7658 103.884 71.7515L103.884 98.2515L151.384 98.2515ZM123.384 69.7515C118.966 69.7515 115.384 73.3332 115.384 77.7515C115.384 82.1698 118.966 85.7515 123.384 85.7515C127.803 85.7515 131.384 82.1698 131.384 77.7515C131.384 73.3332 127.803 69.7515 123.384 69.7515Z" fill="#879C7D"/>
<path fill-rule="evenodd" clip-rule="evenodd" d="M142 202.242L142 191.742L218.5 191.742C236.892 190.751 244.146 180.499 248 149.742C250.431 117.51 241.178 102.049 224.5 96.7416C218.323 95.827 213.372 95.9535 207.216 96.1109C205.145 96.1638 202.937 96.2202 200.5 96.2416L200.5 128.742C200.675 137.597 191.201 154.788 171.5 154.742L126 154.742C112.934 154.947 105.145 163.706 105 173.742L105 225.742C106.121 243.136 115.879 247.679 143 250.242C155.129 251.018 162.324 250.124 176 245.742C185.812 241.847 189.402 236.727 189.5 228.742L189.5 202.242L142 202.242ZM170 230.742C174.418 230.742 178 227.16 178 222.742C178 218.323 174.418 214.742 170 214.742C165.582 214.742 162 218.323 162 222.742C162 227.16 165.582 230.742 170 230.742Z" fill="#F6C25D"/>
</svg>
