<svg width="119" height="26" viewBox="0 0 119 26" fill="none" xmlns="http://www.w3.org/2000/svg">
<g id="Projects-Left" clip-path="url(#clip0_56_1356)">
<path id="path" d="M119 14.1538H65.7098M65.7098 14.1538V3H28M65.7098 14.1538H8.5M119 22H28" stroke="white" stroke-linecap="round"/>
<path id="Rectangle 14" d="M2 11H9V18H2V12H3V17H8V12H2V11Z" fill="white"/>
<path id="Rectangle 16" d="M21 19H28V26H21V20H22V25H27V20H21V19Z" fill="white"/>
<path id="Rectangle 15" d="M21 0H28V7H21V1H22V6H27V1H21V0Z" fill="white"/>
<rect id="Rectangle 17" x="23" y="21" width="3" height="3" fill="#FF0404"/>
</g>
<defs>
<clipPath id="clip0_56_1356">
<rect width="119" height="26" fill="white" transform="matrix(-1 0 0 1 119 0)"/>
</clipPath>
</defs>
</svg>
