<svg width="258" height="876" viewBox="0 0 258 876" fill="none" xmlns="http://www.w3.org/2000/svg">
<path d="M33.8346 20.7033H20.8346V33.7033H1.83466L2.00243 843.5H21.0025L20.9342 856.5L33.9341 856.569V874.396L225 874.297V856.332L238 856.4L238.068 843.401L257 843.432L256.9 33.7033H237.9V20.7033H224.9V1.70331H33.8346V20.7033Z" fill="#4A92A8"/>
<path d="M257 874.297V856.5L238 856.4L238.068 874.297H257Z" fill="#4A92A8"/>
<path d="M21.0022 874.396L20.9342 856.5L2.00243 856.401L2.07036 874.297L21.0022 874.396Z" fill="#4A92A8"/>
<path d="M1.83466 1.70331V20.7033H20.8346V1.70331H1.83466Z" fill="#4A92A8"/>
<path d="M237.9 1.70331V20.7033H256.9V1.70331H237.9Z" fill="#4A92A8"/>
<path d="M20.8346 20.7033H1.83466V33.7033H20.8346V20.7033Z" fill="#4A92A8"/>
<path d="M20.8346 1.70331V20.7033H33.8346V1.70331H20.8346Z" fill="#4A92A8"/>
<path d="M224.9 1.70331V20.7033H237.9V1.70331H224.9Z" fill="#4A92A8"/>
<path d="M256.9 20.7033H237.9V33.7033H256.9V20.7033Z" fill="#4A92A8"/>
<path d="M1.83466 20.7033V1.70331H20.8346M1.83466 20.7033H20.8346M1.83466 20.7033V33.7033M20.8346 20.7033V1.70331M20.8346 20.7033H33.8346V1.70331M20.8346 20.7033V33.7033H1.83466M20.8346 1.70331H33.8346M33.8346 1.70331H224.9M224.9 1.70331V20.7033H237.9M224.9 1.70331H237.9M237.9 20.7033V1.70331M237.9 20.7033H256.9M237.9 20.7033V33.7033H256.9M237.9 1.70331H256.9V20.7033M256.9 20.7033V33.7033M1.83466 33.7033L2.00243 843.5M256.9 33.7033L257 843.432M257 856.5V874.297H238.068M257 856.5L238 856.4M257 856.5V843.432M238 856.4L238.068 874.297M238 856.4L225 856.332V874.297M238 856.4L238.068 843.401L257 843.432M238.068 874.297H225M225 874.297L33.9341 874.396M33.9341 874.396V856.569L20.9342 856.5M33.9341 874.396H21.0022M20.9342 856.5L21.0025 843.5H2.00243M20.9342 856.5L21.0022 874.396M20.9342 856.5L2.00243 856.401M21.0022 874.396L2.07036 874.297L2.00243 856.401M2.00243 856.401V843.5" stroke="#EDA86E" stroke-width="2"/>
</svg>
