<svg width="16" height="16" viewBox="0 0 16 16" fill="none" xmlns="http://www.w3.org/2000/svg">
<g clip-path="url(#clip0_69_2656)">
<circle cx="8" cy="8" r="8" fill="#BBBAB9"/>
<path d="M8.1214 7.4999C7.29253 8.71239 7.23911 9.38861 7.45685 10.5916C7.41456 11.0786 7.08926 11.1562 6.38463 11.2138C6.11364 11.7138 5.90375 11.9938 5.65709 12.0958L7.16282 12.1596C7.56827 11.4346 7.82443 11.3095 8.33409 11.7187C9.0424 10.5177 9.60015 10.2339 10.7699 10.1461C11.9111 10.1107 12.5859 9.84818 13.8706 8.83325C13.5721 9.74661 13.347 10.1782 12.8947 10.8764C10.9865 13.0381 9.94034 13.9457 8.31715 12.4536C7.64441 13.1201 7.40875 12.9947 7.16282 12.1596L5.65709 12.0958C5.49001 12.1649 5.30606 12.1523 5.07483 12.0711L5.07665 12.0727C5.50902 12.4328 5.75193 12.6351 5.70018 12.9287C6.38951 12.7813 6.73743 12.7387 6.90829 13.1297C7.14404 15.0448 7.31695 15.6973 7.72057 15.957C7.57464 15.9879 7.08437 15.7301 5.60419 14.8592C5.23394 14.118 4.82765 13.7086 5.70018 12.9287C5.75193 12.6351 5.50902 12.4328 5.07665 12.0727L5.07483 12.0711L5.65709 12.0958C5.90375 11.9938 6.11364 11.7138 6.38463 11.2138C5.72455 11.0161 5.65319 10.6366 5.85262 9.66541C6.42737 8.48179 6.87578 7.95449 8.1214 7.4999Z" fill="black"/>
<path d="M6.38463 11.2138C7.08926 11.1562 7.41456 11.0786 7.45685 10.5916C7.23911 9.38861 7.29253 8.71239 8.1214 7.4999C6.87578 7.95449 6.42737 8.48179 5.85262 9.66541C5.65319 10.6366 5.72455 11.0161 6.38463 11.2138ZM6.38463 11.2138C5.93008 12.0525 5.64741 12.2722 5.07483 12.0711M5.07483 12.0711C3.11816 11.8412 3.1444 9.53935 1 11.5M5.07483 12.0711C5.50834 12.4322 5.752 12.6347 5.70018 12.9287M5.07483 12.0711L7.16282 12.1596M5.70018 12.9287C6.38951 12.7813 6.73743 12.7387 6.90829 13.1297C7.14404 15.0448 7.31695 15.6973 7.72057 15.957C7.57464 15.9879 7.08437 15.7301 5.60419 14.8592C5.23394 14.118 4.82765 13.7086 5.70018 12.9287ZM7.16282 12.1596C7.40875 12.9947 7.64441 13.1201 8.31715 12.4536C9.94034 13.9457 10.9865 13.0381 12.8947 10.8764C13.347 10.1782 13.5721 9.74661 13.8706 8.83325C12.5859 9.84818 11.9111 10.1107 10.7699 10.1461C9.60015 10.2339 9.0424 10.5177 8.33409 11.7187C7.82443 11.3095 7.56827 11.4346 7.16282 12.1596Z" stroke="black" stroke-width="0.2"/>
<path d="M3.49 9.12C3.09 9.12 2.74 9.04 2.44 8.88C2.14667 8.71333 1.91667 8.48667 1.75 8.2C1.58333 7.90667 1.5 7.57 1.5 7.19V6.71H2.14L2.25 6.76V7.19C2.25 7.55667 2.36333 7.85 2.59 8.07C2.81667 8.28333 3.11667 8.39 3.49 8.39C3.86333 8.39 4.16333 8.27667 4.39 8.05C4.61667 7.82333 4.73 7.51 4.73 7.11V2H5.48V7.09C5.48 7.49667 5.39667 7.85333 5.23 8.16C5.07 8.46 4.84 8.69667 4.54 8.87C4.24 9.03667 3.89 9.12 3.49 9.12ZM11.543 9.12C11.083 9.12 10.663 9.03333 10.283 8.86C9.90305 8.68667 9.58638 8.44667 9.33305 8.14C9.07971 7.82667 8.90971 7.46333 8.82305 7.05L9.51305 6.88L9.62305 6.9C9.69638 7.18 9.82638 7.43333 10.013 7.66C10.1997 7.88 10.423 8.05667 10.683 8.19C10.9497 8.32333 11.233 8.39 11.533 8.39C11.8597 8.39 12.1464 8.33667 12.393 8.23C12.6464 8.12333 12.843 7.97667 12.983 7.79C13.1297 7.59667 13.203 7.37667 13.203 7.13C13.203 6.79667 13.1097 6.54333 12.923 6.37C12.7364 6.19 12.483 6.05667 12.163 5.97L10.793 5.59C10.253 5.43667 9.84305 5.19667 9.56305 4.87C9.28305 4.54333 9.14305 4.16667 9.14305 3.74C9.14305 3.37333 9.23638 3.05333 9.42305 2.78C9.61638 2.5 9.88305 2.28 10.223 2.12C10.563 1.96 10.953 1.88 11.393 1.88C11.8264 1.88 12.2164 1.96333 12.563 2.13C12.9164 2.29 13.2064 2.51667 13.433 2.81C13.6664 3.10333 13.8197 3.44667 13.893 3.84L13.193 3.99L13.083 3.97C12.9964 3.55667 12.7997 3.22667 12.493 2.98C12.1864 2.73333 11.8197 2.61 11.393 2.61C10.953 2.61 10.5997 2.71333 10.333 2.92C10.073 3.12667 9.94305 3.40333 9.94305 3.75C9.94305 4.02333 10.0364 4.25 10.223 4.43C10.4097 4.61 10.6797 4.75 11.033 4.85L12.403 5.23C12.9097 5.37 13.303 5.6 13.583 5.92C13.863 6.23333 14.003 6.62333 14.003 7.09C14.003 7.49667 13.8997 7.85333 13.693 8.16C13.493 8.46 13.2064 8.69667 12.833 8.87C12.4664 9.03667 12.0364 9.12 11.543 9.12Z" fill="black"/>
</g>
<defs>
<clipPath id="clip0_69_2656">
<rect width="16" height="16" fill="white"/>
</clipPath>
</defs>
</svg>
