<svg width="300" height="300" viewBox="0 0 300 300" fill="none" xmlns="http://www.w3.org/2000/svg">
<g clip-path="url(#clip0_8_1273)">
<path d="M255.643 100.084C255.641 96.0755 254.786 92.5337 253.056 89.4939C251.357 86.5047 248.812 83.9994 245.398 82.0185C217.221 65.7374 189.017 49.5062 160.849 33.2086C153.255 28.8153 145.893 28.9754 138.355 33.4318C127.14 40.0599 70.9886 72.2975 54.2563 82.0094C47.3655 86.0068 44.0124 92.1245 44.0108 100.076C44 132.818 44.0108 165.56 44 198.303C44 202.223 44.8207 205.696 46.4744 208.69C48.1746 211.77 50.755 214.344 54.2472 216.37C70.9803 226.082 127.139 258.317 138.352 264.946C145.893 269.405 153.255 269.565 160.852 265.17C189.02 248.871 217.226 232.641 245.407 216.36C248.9 214.335 251.48 211.759 253.18 208.682C254.832 205.688 255.654 202.215 255.654 198.294C255.654 198.294 255.654 132.827 255.643 100.084Z" fill="#A179DC"/>
<path d="M150.151 148.87L46.4744 208.69C48.1745 211.77 50.7549 214.344 54.2471 216.37C70.9802 226.082 127.139 258.317 138.352 264.946C145.892 269.405 153.255 269.565 160.852 265.17C189.02 248.871 217.226 232.641 245.407 216.36C248.9 214.335 251.48 211.759 253.18 208.682L150.151 148.87Z" fill="#280068"/>
<path d="M255.643 100.084C255.641 96.0755 254.786 92.5337 253.056 89.4939L150.151 148.87L253.18 208.682C254.831 205.688 255.652 202.215 255.654 198.294C255.654 198.294 255.654 132.827 255.643 100.084Z" fill="#390091"/>
<path d="M211.192 126.508V137.689H222.35V126.508H227.929V137.689H239.087V143.28H227.929V154.461H239.087V160.052H227.929V171.233H222.35V160.052H211.192V171.233H205.613V160.052H194.455V154.461H205.613V143.28H194.455V137.689H205.613V126.508H211.192ZM222.35 143.28H211.192V154.461H222.35V143.28Z" fill="white"/>
<path d="M150.378 70.3527C179.482 70.3527 204.891 86.1917 218.501 109.735L218.368 109.508L184.127 129.266C177.38 117.819 165.012 110.094 150.825 109.935L150.378 109.933C128.743 109.933 111.203 127.508 111.203 149.189C111.203 156.279 113.089 162.925 116.369 168.665C123.122 180.479 135.816 188.447 150.378 188.447C165.03 188.447 177.796 180.377 184.515 168.438L184.352 168.724L218.542 188.573C205.081 211.917 180.02 227.707 151.255 228.022L150.378 228.026C121.183 228.026 95.701 212.09 82.1253 188.422C75.4978 176.868 71.7058 163.473 71.7058 149.189C71.7058 105.65 106.928 70.3527 150.378 70.3527Z" fill="white"/>
</g>
<defs>
<clipPath id="clip0_8_1273">
<rect width="212" height="239" fill="white" transform="translate(44 30)"/>
</clipPath>
</defs>
</svg>
