<svg width="300" height="300" viewBox="0 0 300 300" fill="none" xmlns="http://www.w3.org/2000/svg">
<g clip-path="url(#clip0_85_2)">
<path d="M273 27H27V273H273V27Z" fill="#F7DF1E"/>
<path d="M192.25 219.188C197.205 227.279 203.651 233.226 215.053 233.226C224.632 233.226 230.75 228.439 230.75 221.824C230.75 213.898 224.464 211.09 213.921 206.478L208.142 203.999C191.461 196.892 180.379 187.989 180.379 169.168C180.379 151.831 193.589 138.633 214.233 138.633C228.931 138.633 239.497 143.748 247.111 157.142L229.11 168.7C225.147 161.593 220.871 158.794 214.233 158.794C207.463 158.794 203.171 163.089 203.171 168.7C203.171 175.635 207.466 178.442 217.385 182.738L223.164 185.213C242.805 193.636 253.894 202.222 253.894 221.527C253.894 242.34 237.545 253.742 215.588 253.742C194.12 253.742 180.25 243.511 173.464 230.102L192.25 219.188ZM110.589 221.192C114.221 227.634 117.524 233.082 125.466 233.082C133.061 233.082 137.852 230.11 137.852 218.556V139.953H160.969V218.868C160.969 242.804 146.935 253.699 126.45 253.699C107.942 253.699 97.2233 244.12 91.7722 232.584L110.589 221.192Z" fill="black"/>
</g>
<defs>
<clipPath id="clip0_85_2">
<rect width="246" height="246" fill="white" transform="translate(27 27)"/>
</clipPath>
</defs>
</svg>
