<svg width="300" height="300" viewBox="0 0 300 300" fill="none" xmlns="http://www.w3.org/2000/svg">
<path fill-rule="evenodd" clip-rule="evenodd" d="M147.044 83.1575L147.044 96.6836L48.4969 96.6836C24.8044 97.9591 15.46 111.166 10.495 150.788C7.36373 192.309 19.2832 212.226 40.7676 219.063C48.7253 220.241 55.1035 220.078 63.0326 219.875C65.7011 219.807 68.5453 219.734 71.6844 219.707L71.6844 177.84C71.4588 166.433 83.6637 144.287 109.042 144.347L167.655 144.347C184.486 144.083 194.521 132.799 194.708 119.871L194.708 52.8848C193.264 30.478 180.693 24.625 145.756 21.324C130.131 20.3232 120.863 21.4758 103.245 27.1208C90.6061 32.1382 85.9806 38.7331 85.8547 49.0202L85.8546 83.1575L147.044 83.1575ZM110.975 46.4438C105.283 46.4438 100.669 51.0578 100.669 56.7494C100.669 62.441 105.283 67.055 110.975 67.055C116.667 67.055 121.281 62.441 121.281 56.7494C121.281 51.0578 116.667 46.4438 110.975 46.4438Z" fill="#0277BC"/>
<path fill-rule="evenodd" clip-rule="evenodd" d="M134.956 217.118L134.956 203.591L233.503 203.591C257.196 202.316 266.54 189.109 271.505 149.487C274.637 107.966 262.717 88.0492 241.233 81.2125C233.275 80.0343 226.897 80.1973 218.968 80.3999C216.299 80.4681 213.455 80.5408 210.316 80.5684L210.316 122.435C210.541 133.842 198.337 155.988 172.958 155.928L114.345 155.928C97.5138 156.193 87.4794 167.476 87.2927 180.404L87.2927 247.39C88.7365 269.797 101.307 275.65 136.244 278.951C151.869 279.952 161.137 278.799 178.755 273.154C191.394 268.137 196.02 261.542 196.146 251.255L196.146 217.118L134.956 217.118ZM171.026 253.831C176.717 253.831 181.331 249.217 181.331 243.526C181.331 237.834 176.717 233.22 171.026 233.22C165.334 233.22 160.72 237.834 160.72 243.526C160.72 249.217 165.334 253.831 171.026 253.831Z" fill="#FEC008"/>
</svg>
