<svg width="300" height="300" viewBox="0 0 300 300" fill="none" xmlns="http://www.w3.org/2000/svg">
<g clip-path="url(#clip0_85_27)">
<path d="M239.953 27H50.0469C37.3184 27 27 37.3184 27 50.0469V239.953C27 252.682 37.3184 263 50.0469 263H239.953C252.682 263 263 252.682 263 239.953V50.0469C263 37.3184 252.682 27 239.953 27Z" fill="#3178C6"/>
<path d="M239.953 27H50.0469C37.3184 27 27 37.3184 27 50.0469V239.953C27 252.682 37.3184 263 50.0469 263H239.953C252.682 263 263 252.682 263 239.953V50.0469C263 37.3184 252.682 27 239.953 27Z" fill="#3178C6"/>
<path fill-rule="evenodd" clip-rule="evenodd" d="M173.089 214.797V237.872C176.84 239.795 181.277 241.237 186.399 242.198C191.521 243.16 196.919 243.641 202.594 243.641C208.124 243.641 213.378 243.112 218.356 242.054C223.334 240.997 227.698 239.254 231.449 236.826C235.2 234.399 238.17 231.226 240.358 227.308C242.546 223.39 243.641 218.547 243.641 212.778C243.641 208.596 243.016 204.93 241.765 201.782C240.515 198.633 238.711 195.833 236.355 193.381C233.998 190.929 231.173 188.73 227.878 186.783C224.584 184.836 220.869 182.997 216.733 181.267C213.703 180.016 210.986 178.803 208.581 177.625C206.177 176.447 204.133 175.245 202.449 174.02C200.766 172.794 199.468 171.496 198.554 170.126C197.64 168.755 197.183 167.205 197.183 165.474C197.183 163.888 197.592 162.458 198.41 161.184C199.227 159.91 200.382 158.817 201.872 157.903C203.363 156.99 205.191 156.281 207.355 155.776C209.519 155.271 211.924 155.019 214.569 155.019C216.492 155.019 218.524 155.163 220.664 155.451C222.804 155.74 224.957 156.185 227.121 156.785C229.285 157.386 231.389 158.144 233.433 159.057C235.477 159.97 237.365 161.028 239.096 162.23V140.669C235.585 139.323 231.75 138.326 227.59 137.677C223.43 137.028 218.656 136.703 213.27 136.703C207.788 136.703 202.594 137.292 197.688 138.47C192.783 139.648 188.467 141.486 184.739 143.986C181.012 146.486 178.067 149.671 175.903 153.541C173.739 157.41 172.656 162.037 172.656 167.421C172.656 174.296 174.64 180.161 178.608 185.016C182.575 189.871 188.599 193.982 196.678 197.347C199.852 198.645 202.81 199.918 205.552 201.168C208.293 202.419 210.661 203.717 212.657 205.062C214.653 206.408 216.228 207.875 217.382 209.461C218.537 211.047 219.114 212.85 219.114 214.869C219.114 216.36 218.753 217.741 218.031 219.015C217.31 220.29 216.216 221.395 214.749 222.332C213.282 223.27 211.455 224.003 209.267 224.532C207.078 225.061 204.518 225.325 201.584 225.325C196.582 225.325 191.629 224.448 186.723 222.693C181.818 220.939 177.273 218.307 173.089 214.797ZM134.297 157.944H163.898V139.008H81.3906V157.944H110.847V242.258H134.297V157.944Z" fill="white"/>
</g>
<defs>
<clipPath id="clip0_85_27">
<rect width="236" height="236" fill="white" transform="translate(27 27)"/>
</clipPath>
</defs>
</svg>
