<svg width="300" height="300" viewBox="0 0 300 300" fill="none" xmlns="http://www.w3.org/2000/svg">
<path d="M145 223.5C139.89 223.475 135.941 223.978 125.5 226.5L91.5 179C90.9219 176.803 90.9653 173.867 91.5 166.5C94.3516 151.89 103.011 139.169 114 125.5C117.223 119.954 120.431 118.226 122.5 104C121.211 92.1169 121.72 84.598 122.5 74C122.943 58.8928 129.226 54.6798 148 52.5C157.672 52.5509 162.338 53.9084 168 61C174.132 72.5307 174.578 81.7629 174 99.5C174.86 107.882 175.231 110.521 182 118.5C194.846 133.19 201.384 143.866 204.5 155C207.011 167.79 207.976 174.558 203.5 181L164 223.5C162.361 224.728 158.287 224.748 145 223.5Z" fill="black" stroke="black" stroke-width="5" stroke-linecap="round"/>
<path d="M214.388 199.82C217.467 205.019 218.369 207.221 218.657 210.031C218.705 214.186 213.802 216.459 204.594 220.508C196.698 224.247 193.924 226.734 189.32 230.278C182.14 234.603 178.933 235.35 172.973 234.142C168.342 231.998 168.057 229.749 165.971 225.18C164.998 221.484 166.64 217.888 171.034 207.824C177.596 190.666 177.205 186.285 180.671 178.921C181.951 176.685 183.322 176.682 186.484 175.815C187.744 175.607 190.601 177.371 197.998 182.536C206.107 184.1 210.259 184.412 211.123 185.728C211.987 187.045 213.793 195.021 214.388 199.82Z" fill="#F6C25D" stroke="black" stroke-width="5" stroke-linecap="round"/>
<ellipse cx="131" cy="89" rx="7" ry="11" fill="white"/>
<ellipse cx="152.427" cy="89.0293" rx="9" ry="12" transform="rotate(7.16849 152.427 89.0293)" fill="white"/>
<path d="M72 208.5C70.3503 214.336 70.0454 216.704 70.5 219.5C71.5422 223.538 76.9336 224.467 87 226C95.7027 227.572 99.0681 229.262 104.5 231.5C112.656 233.826 115.988 233.718 121.5 231C125.468 227.721 125.157 225.468 126 220.5C125.983 216.667 123.435 213.609 116.5 205C105.586 190.08 104.819 185.734 99.5 179.5C97.6614 177.665 96.3203 178.018 93 178C91.7135 178.125 89.3818 180.576 83.5 187.5C75.979 191.12 72 192.5 71.5 194C71 195.5 71.3242 203.695 72 208.5Z" fill="#F6C25D" stroke="black" stroke-width="5" stroke-linecap="round"/>
<path d="M136.5 215.5C131.851 214.482 129.127 212.95 124 208.5C118.873 204.05 124 204 124 204C127.441 204.617 127.5 197 127.5 197C127.5 197 124.54 190.648 120.5 187C110.74 181.175 107 172.5 107 172.5L114.5 146C118.56 132.97 126 113 126 113C132.388 116.872 136.511 120.402 141 119.5C141 119.5 160.171 110.664 164 118C167.829 125.336 167.76 126.967 174 142C180.24 157.033 182 168.5 182 168.5L170 184.5L164.5 208C159.038 210.617 159 213 150.5 214C142 215 141.149 216.518 136.5 215.5Z" fill="white" stroke="black" stroke-width="5" stroke-linecap="round"/>
<path d="M137.5 91C135.701 91.3842 133.247 93.251 128.5 97C124.757 100.109 121.934 102.047 122.5 104C123.107 105.954 123.628 107.049 125.5 109L131 113C134.518 115.823 136.38 118.016 140.5 117.5C144.961 116.248 147.342 115.236 152.5 112.5C158.438 109.833 160.247 108.436 160.5 108C163.391 103.376 164.012 100.772 160.5 98.5L150.5 94.5C146.516 92.2919 144.35 91.1197 142.5 91H137.5Z" fill="#F6C25D" stroke="black" stroke-width="2" stroke-linecap="round"/>
</svg>
