<svg width="300" height="300" viewBox="0 0 300 300" fill="none" xmlns="http://www.w3.org/2000/svg">
<g clip-path="url(#clip0_85_36)">
<path d="M0 42.6136L117.075 25.9091V143.523H0M131.176 23.5227L286.293 0V142.5H131.176M0 155.932H117.075V273.886L0 256.841M131.176 157.5H286.293V298.636L131.176 275.795M373.853 57.9545L396.022 58.0909L430.456 187.977C432.915 197.045 434.719 206.318 435.834 215.727C447.836 162.545 464.234 110.727 478.138 58.2273L497.323 58.2954L526.969 170.795C530.674 185.727 535.495 200.455 536.971 215.795C547.793 162.614 563.305 110.795 575.668 58.2954L597.509 58.1932L548.974 238.875H525.362L490.272 108.989C488.304 102 487.485 94.7727 486.861 87.5114C485.943 93.75 485.091 100.057 483.582 106.159L448.164 238.432C440.294 238.875 432.423 238.909 424.553 238.841L374.05 58.1591M609.971 59.3182C610.388 55.8766 612.051 52.7297 614.621 50.5179C617.192 48.3062 620.477 47.1959 623.807 47.4131C627.137 47.6303 630.263 49.1587 632.547 51.6872C634.831 54.2156 636.103 57.554 636.103 61.0227C636.103 64.4915 634.831 67.8299 632.547 70.3583C630.263 72.8867 627.137 74.4151 623.807 74.6323C620.477 74.8495 617.192 73.7393 614.621 71.5275C612.051 69.3158 610.388 66.1688 609.971 62.7273M612.922 109.091H632.599V238.636H612.922M685.594 129.955C696.842 109.159 723.078 99.5454 744.23 109.159C761.053 115.977 767.317 136.227 767.841 153.477C768.76 181.841 768.005 210.239 768.235 238.602C761.676 238.602 755.117 238.602 748.559 238.568C748.231 211.295 749.214 184.023 748.099 156.75C747.575 143.25 742.065 127.023 727.931 123.58C707.271 117.102 686.709 136.432 686.053 157.67C685.463 184.602 686.02 211.636 685.823 238.602H666.147V109.091H685.823L685.561 129.955M885.441 47.7273H905.118V238.636H885.507L884.949 217.841C870.749 244.364 832.807 250.227 811.163 230.557C795.651 216.682 790.929 194.08 791.748 173.625C791.912 152.898 798.471 131.011 814.376 117.375C835.037 99.7159 871.438 100.739 885.868 126.682L885.736 47.5909M843.432 122.932C827.691 125.523 817.033 140.455 814.081 155.898C810.211 174.511 810.9 196.125 822.181 211.807C834.381 228.648 861.206 229.023 874.324 213.102C883.178 203.489 885.736 189.716 885.802 176.966C885.9 163.33 887.015 147.989 878.325 136.739C870.651 125.386 856.353 120.273 843.563 123.102M980.544 106.057C998.089 104.455 1017.6 107.318 1030.72 120.511C1045.61 134.83 1050.07 156.989 1049.22 177.102C1048.99 195.341 1042.49 213.92 1029.64 226.534C1002.81 251.898 952.899 246.307 935.846 211.466C922.466 182.25 925.155 141.92 949.619 119.761C958.375 112.057 969.46 108.511 980.446 105.989M976.904 124.534C948.045 133.739 943.126 172.943 952.144 198.852C959.359 221.761 987.234 231.92 1007.57 221.216C1021.18 214.739 1027.37 198.716 1028.69 184.057C1030.16 167.011 1028.85 147.58 1017.21 134.284C1007.37 122.761 990.71 120.307 976.871 124.5M1059.25 109.091H1079.78L1104.05 201.818C1105.69 207.614 1106.34 213.614 1106.93 219.614C1116.21 182.455 1127.92 145.977 1138.48 109.159L1156.42 109.261C1165.44 146.08 1176.65 182.216 1184.13 219.716C1191.84 182.898 1202.82 146.42 1211.35 109.943C1217.91 109.602 1224.53 109.5 1231.16 109.432L1194.1 238.977H1173.7C1164.85 203.864 1153.37 169.432 1146.15 133.977C1137.63 169.432 1125.72 203.864 1115.98 238.977H1096.31L1059.25 109.432M1278.97 105.682C1291.27 104.795 1303.8 106.023 1315.37 110.727C1318.59 117.068 1316.09 125.386 1316.85 132.545C1303.07 123.58 1284.05 117.886 1268.97 126.989C1258.7 132.784 1258.21 149.932 1268.21 156.307C1282.55 165.955 1300.75 168.477 1313.47 180.852C1327.51 194.898 1324.1 221.761 1307.67 232.33C1287.66 245.557 1261.43 244.261 1240.44 234.17L1240.27 211.261C1255.16 223.057 1276.02 229.602 1294.06 221.216C1304.45 215.761 1304.98 199.193 1295.83 192.239C1281.5 181.261 1261.72 179.523 1249.26 165.818C1236.7 152.659 1238.96 128.318 1252.96 117.409C1260.18 110.489 1270.02 108.409 1279.2 105.716M1416.71 55.2273L1423.59 54.2045V238.636H1404.18L1404.41 84.8864C1392.04 93.75 1378.7 101.386 1364.07 105.614L1364.3 85.1591C1383.32 78.4432 1400.7 67.6023 1416.44 54.9545M1495.41 54.8864C1512.46 51.9204 1531.49 58.3977 1541.65 73.4659C1556.08 94.6023 1557.39 121.875 1558.11 146.761C1557.62 173.148 1554.83 201.648 1538.63 223.125C1523.71 243.477 1493.05 248.25 1473.05 233.284C1456.81 221.114 1450.42 199.875 1447.57 180.102C1444.29 150.886 1444.61 120.102 1454.35 92.4886C1460.52 73.5682 1475.74 57.375 1495.35 54.9886M1492.33 73.2954C1474.85 80.6591 1469.83 102.136 1467.41 119.659C1464.85 144 1464.26 169.091 1469.83 192.955C1472.62 204.75 1478.49 217.261 1489.74 222.443C1502.53 229.125 1519.58 223.364 1526.14 210.273C1536.86 191.011 1537.13 168 1537.29 146.182C1536.86 125.045 1536.04 102.545 1524.83 84.1364C1518.17 72.9545 1503.84 68.4545 1492.23 73.2954" fill="#0078D6"/>
</g>
<defs>
<clipPath id="clip0_85_36">
<rect width="300" height="300" fill="white"/>
</clipPath>
</defs>
</svg>
